HIERARCHY
ROOT hip
{
  OFFSET 280.763 78.5162 70.7847
  CHANNELS 6 Xposition Yposition Zposition Zrotation Xrotation Yrotation
  JOINT abdomen
  {
    OFFSET 0 20.6881 -0.73152
    CHANNELS 3 Zrotation Xrotation Yrotation
    JOINT chest
    {
      OFFSET 0 11.7043 -0.48768
      CHANNELS 3 Zrotation Xrotation Yrotation
      JOINT neck
      {
        OFFSET 0 22.1894 -2.19456
        CHANNELS 3 Zrotation Xrotation Yrotation
        JOINT head
        {
          OFFSET -0.24384 7.07133 1.2192
          CHANNELS 3 Zrotation Xrotation Yrotation
          JOINT leftEye
          {
            OFFSET 4.14528 8.04674 8.04672
            CHANNELS 3 Zrotation Xrotation Yrotation
            End Site
            {
              OFFSET 1 0 0
            }
          }
          JOINT rightEye
          {
            OFFSET -3.6576 8.04674 8.04672
            CHANNELS 3 Zrotation Xrotation Yrotation
            End Site
            {
              OFFSET 1 0 0
            }
          }
        }
      }
      JOINT rCollar
      {
        OFFSET -2.68224 19.2634 -4.8768
        CHANNELS 3 Zrotation Xrotation Yrotation
        JOINT rShldr
        {
          OFFSET -8.77824 -1.95073 1.46304
          CHANNELS 3 Zrotation Xrotation Yrotation
          JOINT rForeArm
          {
            OFFSET -28.1742 -1.7115 0.48768
            CHANNELS 3 Zrotation Xrotation Yrotation
            JOINT rHand
            {
              OFFSET -22.5879 0.773209 7.07136
              CHANNELS 3 Zrotation Xrotation Yrotation
              JOINT rThumb1
              {
                OFFSET -1.2192 -0.487915 3.41376
                CHANNELS 3 Zrotation Xrotation Yrotation
                JOINT rThumb2
                {
                  OFFSET -3.37035 -0.52449 3.41376
                  CHANNELS 3 Zrotation Xrotation Yrotation
                  End Site
                  {
                    OFFSET -1.78271 -1.18214 1.43049
                  }
                }
              }
              JOINT rIndex1
              {
                OFFSET -7.75947 0.938293 5.60832
                CHANNELS 3 Zrotation Xrotation Yrotation
                JOINT rIndex2
                {
                  OFFSET -2.54057 -0.884171 1.56538
                  CHANNELS 3 Zrotation Xrotation Yrotation
                  End Site
                  {
                    OFFSET -1.62519 -0.234802 1.16502
                  }
                }
              }
              JOINT rMid1
              {
                OFFSET -8.24714 1.18213 3.41376
                CHANNELS 3 Zrotation Xrotation Yrotation
                JOINT rMid2
                {
                  OFFSET -3.10165 -0.590103 1.0647
                  CHANNELS 3 Zrotation Xrotation Yrotation
                  End Site
                  {
                    OFFSET -2.48547 -0.328903 0.83742
                  }
                }
              }
              JOINT rRing1
              {
                OFFSET -8.82822 0.546677 1.51678
                CHANNELS 3 Zrotation Xrotation Yrotation
                JOINT rRing2
                {
                  OFFSET -2.60934 -0.819778 -0.0198488
                  CHANNELS 3 Zrotation Xrotation Yrotation
                  End Site
                  {
                    OFFSET -2.33842 -0.294052 0.168128
                  }
                }
              }
              JOINT rPinky1
              {
                OFFSET -8.27202 -0.0477905 -0.4584
                CHANNELS 3 Zrotation Xrotation Yrotation
                JOINT rPinky2
                {
                  OFFSET -1.82734 -0.647385 -0.700984
                  CHANNELS 3 Zrotation Xrotation Yrotation
                  End Site
                  {
                    OFFSET -1.69225 -0.51767 -0.607171
                  }
                }
              }
            }
          }
        }
      }
      JOINT lCollar
      {
        OFFSET 2.68224 19.2634 -4.8768
        CHANNELS 3 Zrotation Xrotation Yrotation
        JOINT lShldr
        {
          OFFSET 8.77824 -1.95073 1.46304
          CHANNELS 3 Zrotation Xrotation Yrotation
          JOINT lForeArm
          {
            OFFSET 28.1742 -1.7115 0.48768
            CHANNELS 3 Zrotation Xrotation Yrotation
            JOINT lHand
            {
              OFFSET 22.5879 0.773209 7.07136
              CHANNELS 3 Zrotation Xrotation Yrotation
              JOINT lThumb1
              {
                OFFSET 1.2192 -0.487915 3.41376
                CHANNELS 3 Zrotation Xrotation Yrotation
                JOINT lThumb2
                {
                  OFFSET 3.37035 -0.52449 3.41376
                  CHANNELS 3 Zrotation Xrotation Yrotation
                  End Site
                  {
                    OFFSET 1.78271 -1.18214 1.43049
                  }
                }
              }
              JOINT lIndex1
              {
                OFFSET 7.75947 0.938293 5.60832
                CHANNELS 3 Zrotation Xrotation Yrotation
                JOINT lIndex2
                {
                  OFFSET 2.54057 -0.884171 1.56538
                  CHANNELS 3 Zrotation Xrotation Yrotation
                  End Site
                  {
                    OFFSET 1.62519 -0.234802 1.16502
                  }
                }
              }
              JOINT lMid1
              {
                OFFSET 8.24714 1.18213 3.41376
                CHANNELS 3 Zrotation Xrotation Yrotation
                JOINT lMid2
                {
                  OFFSET 3.10165 -0.590103 1.0647
                  CHANNELS 3 Zrotation Xrotation Yrotation
                  End Site
                  {
                    OFFSET 2.48547 -0.328903 0.83742
                  }
                }
              }
              JOINT lRing1
              {
                OFFSET 8.82822 0.546677 1.51678
                CHANNELS 3 Zrotation Xrotation Yrotation
                JOINT lRing2
                {
                  OFFSET 2.60934 -0.819778 -0.0198488
                  CHANNELS 3 Zrotation Xrotation Yrotation
                  End Site
                  {
                    OFFSET 2.33842 -0.294052 0.168128
                  }
                }
              }
              JOINT lPinky1
              {
                OFFSET 8.27202 -0.0477905 -0.4584
                CHANNELS 3 Zrotation Xrotation Yrotation
                JOINT lPinky2
                {
                  OFFSET 1.82734 -0.647385 -0.700984
                  CHANNELS 3 Zrotation Xrotation Yrotation
                  End Site
                  {
                    OFFSET 1.69225 -0.51767 -0.607171
                  }
                }
              }
            }
          }
        }
      }
    }
  }
  JOINT rButtock
  {
    OFFSET -8.77824 4.35084 1.2192
    CHANNELS 3 Zrotation Xrotation Yrotation
    JOINT rThigh
    {
      OFFSET 0 -1.70687 -2.19456
      CHANNELS 3 Zrotation Xrotation Yrotation
      JOINT rShin
      {
        OFFSET 0 -36.8199 0.73152
        CHANNELS 3 Zrotation Xrotation Yrotation
        JOINT rFoot
        {
          OFFSET 0.73152 -45.1104 -5.12064
          CHANNELS 3 Zrotation Xrotation Yrotation
          End Site
          {
            OFFSET -1.1221 -3.69964 12.103
          }
        }
      }
    }
  }
  JOINT lButtock
  {
    OFFSET 8.77824 4.35084 1.2192
    CHANNELS 3 Zrotation Xrotation Yrotation
    JOINT lThigh
    {
      OFFSET 0 -1.70687 -2.19456
      CHANNELS 3 Zrotation Xrotation Yrotation
      JOINT lShin
      {
        OFFSET 0 -36.8199 0.73152
        CHANNELS 3 Zrotation Xrotation Yrotation
        JOINT lFoot
        {
          OFFSET -0.73152 -45.1104 -5.12064
          CHANNELS 3 Zrotation Xrotation Yrotation
          End Site
          {
            OFFSET 1.1221 -3.69964 12.103
          }
        }
      }
    }
  }
}
MOTION
Frames:	4
Frame Time:	0.00833333
-191.551 78.7943 -75.8175 2.38046 0.0111362 -0.0455973 -3.13121 0.00208551 -0.0845031 -0.86323 0.0181966 -0.149331 9.12882e-014 0 4.96962e-016 2.74978e-013 3.18055e-015 1.43808e-015 -0 0 0 -0 0 0 4.55232e-014 2.24992e-016 4.96962e-016 9.63487e-013 4.77083e-015 8.74653e-015 1.65611e-011 -4.82013e-012 -3.81667e-014 1.89894e-010 5.80111e-012 1.27858e-012 4.47881e-010 2.12353e-012 2.66212e-012 7.73465e-010 3.66718e-012 4.58397e-012 4.47882e-010 2.12382e-012 2.65576e-012 7.73091 5.47488 0.417314 4.47879e-010 2.12342e-012 2.65576e-012 2.90554 0.965183 0.102902 4.47882e-010 2.12342e-012 2.6653e-012 10.2786 0.731801 0.0259123 4.47873e-010 2.1262e-012 2.67485e-012 2.22167 -0.733487 -0.20892 4.54238e-014 2.2208e-016 9.93923e-017 9.60521e-013 4.37326e-015 7.55382e-015 1.66096e-011 5.11393e-012 -6.67917e-014 1.89843e-010 -4.13726e-012 1.32947e-012 4.47876e-010 2.12164e-012 2.68121e-012 7.73475e-010 3.66082e-012 4.61896e-012 4.47873e-010 2.12103e-012 2.69711e-012 -7.73091 5.47488 -0.417314 4.47877e-010 2.12103e-012 2.67803e-012 -2.90554 0.965183 -0.102902 4.47875e-010 2.12113e-012 2.68041e-012 -10.2786 0.731801 -0.0259123 4.47881e-010 2.12342e-012 2.6653e-012 -2.22167 -0.733487 0.20892 -2.03217e-016 0 -3.88251e-019 -1.91869 -1.93503 0.0146229 -0.00850137 -2.07867 -0.0697677 -0.458766 4.00011 0.132474 2.03217e-016 0 3.88251e-019 -2.83812 -9.32627 0.322348 -0.00902557 11.3079 -0.235086 0.527242 -1.99511 -0.0183502 
-187.857 76.2011 -84.007 7.60577 16.6997 19.4663 -6.02166 -0.742483 -3.37725 2.70786 1.22132 -1.13647 -3.28945 3.08017 -0.630109 4.76375 -11.972 0.904115 -0 0 0 -0 0 0 7.72416e-014 -4.66496e-013 1.48557e-013 20.2743 -1.38304 2.94209 -27.1939 -24.7541 13.6688 0.0887483 -7.25472 -0.995842 -1.64342e-009 2.2342e-009 -2.32306e-009 -2.80229e-009 4.05026e-009 -4.04951e-009 -1.64342e-009 2.2342e-009 -2.32306e-009 7.73091 5.47488 0.417314 -1.64343e-009 2.2342e-009 -2.32306e-009 2.90554 0.965183 0.102902 -1.64342e-009 2.23421e-009 -2.32305e-009 10.2786 0.731801 0.0259123 -1.64343e-009 2.23421e-009 -2.32304e-009 2.22167 -0.733487 -0.20892 7.71501e-014 -4.66498e-013 1.48214e-013 -21.5272 15.5156 3.93815 20.2532 -18.0321 -15.2082 -0.0451113 -4.74079 0.658239 8.57414e-010 -7.10664e-010 1.5973e-009 1.45446e-009 -1.25424e-009 2.76845e-009 8.57406e-010 -7.10666e-010 1.59731e-009 -7.73091 5.47488 -0.417314 8.57415e-010 -7.10662e-010 1.59729e-009 -2.90554 0.965183 -0.102902 8.57412e-010 -7.10662e-010 1.59729e-009 -10.2786 0.731801 -0.0259123 8.57418e-010 -7.10661e-010 1.59728e-009 -2.22167 -0.733487 0.20892 -2.03217e-016 0 -3.88251e-019 -2.15778 -21.9727 0.849422 0.213429 11.9719 0.300159 -0.493494 1.99254 -0.489581 2.03217e-016 0 3.88251e-019 -5.10075 -0.557329 3.05304 -0.0440194 9.66656 -0.630036 0.455845 -12.995 -0.425834 
-183.924 77.067 -83.6198 0.552421 27.6887 44.4472 -9.23955 -1.55764 -6.84099 6.54103 2.48406 -2.1763 -6.72047 6.36257 -1.32165 10.3291 -24.604 1.98874 -0 0 0 -0 0 0 1.15951e-013 -9.95713e-013 3.15347e-013 41.897 -3.03092 5.94396 -38.7665 -45.4118 37.9172 -0.115868 -15.2604 -2.15508 -3.94026e-009 4.73664e-009 -4.90827e-009 -6.72929e-009 8.5838e-009 -8.55566e-009 -3.94026e-009 4.73663e-009 -4.90827e-009 7.73091 5.47488 0.417314 -3.94026e-009 4.73663e-009 -4.90826e-009 2.90554 0.965183 0.102902 -3.94025e-009 4.73664e-009 -4.90826e-009 10.2786 0.731801 0.0259123 -3.94026e-009 4.73664e-009 -4.90825e-009 2.22167 -0.733487 -0.20892 1.1587e-013 -9.95715e-013 3.15061e-013 -46.8793 31.6636 9.08402 30.2555 -32.8089 -36.1475 0.0272508 -9.69192 1.36117 1.32691e-009 -1.50307e-009 3.39544e-009 2.23563e-009 -2.65275e-009 5.88495e-009 1.3269e-009 -1.50307e-009 3.39545e-009 -7.73091 5.47488 -0.417314 1.32692e-009 -1.50306e-009 3.39544e-009 -2.90554 0.965183 -0.102902 1.32691e-009 -1.50306e-009 3.39543e-009 -10.2786 0.731801 -0.0259123 1.32692e-009 -1.50306e-009 3.39542e-009 -2.22167 -0.733487 0.20892 -2.03217e-016 0 -3.88251e-019 -1.54351 -43.3052 2.31806 0.235513 27.0126 0.773283 -0.585624 -0.193964 -1.13761 2.03217e-016 0 3.88251e-019 -8.45209 8.92424 5.94805 -0.110401 7.296 -1.05023 0.256823 -25.3897 -0.779454 
-180.225 77.3138 -83.2927 -12.1819 26.5477 67.8248 -12.058 -2.20177 -9.96934 9.97457 3.62292 -3.11621 -9.66288 9.236 -1.9124 15.6493 -35.8759 3.27518 -0 0 0 -0 0 0 1.40678e-013 -1.39994e-012 4.44678e-013 61.2481 -4.10535 8.84657 -31.21 -50.6828 72.4904 -0.539158 -21.7368 -3.19069 -5.82603e-009 6.69836e-009 -6.9745e-009 -9.9538e-009 1.21435e-008 -1.21577e-008 -5.82603e-009 6.69835e-009 -6.9745e-009 7.73091 5.47488 0.417314 -5.82604e-009 6.69835e-009 -6.97449e-009 2.90554 0.965183 0.102902 -5.82602e-009 6.69837e-009 -6.97449e-009 10.2786 0.731801 0.0259123 -5.82603e-009 6.69837e-009 -6.97448e-009 2.22167 -0.733487 -0.20892 1.40603e-013 -1.39994e-012 4.44444e-013 -73.2264 45.4703 16.3464 29.7754 -37.0485 -59.2967 0.200165 -14.2147 2.03015 1.67649e-009 -2.13623e-009 4.78653e-009 2.81644e-009 -3.77004e-009 8.29611e-009 1.67647e-009 -2.13624e-009 4.78654e-009 -7.73091 5.47488 -0.417314 1.67649e-009 -2.13623e-009 4.78653e-009 -2.90554 0.965183 -0.102902 1.67649e-009 -2.13623e-009 4.78652e-009 -10.2786 0.731801 -0.0259123 1.67649e-009 -2.13623e-009 4.78652e-009 -2.22167 -0.733487 0.20892 -2.03217e-016 0 -3.88251e-019 0.801227 -61.9651 4.97056 -0.01927 40.066 1.33329 -0.693659 -2.02147 -1.73324 2.03217e-016 0 3.88251e-019 -12.2015 16.7854 8.90481 -0.182296 6.38347 -1.41097 -0.246627 -34.987 -1.47464 
